<svg width="40" height="40" viewBox="0 0 40 40" fill="none" xmlns="http://www.w3.org/2000/svg">
<path d="M20 36.6667C29.2048 36.6667 36.6667 29.2048 36.6667 20C36.6667 10.7953 29.2048 3.33337 20 3.33337C10.7953 3.33337 3.33337 10.7953 3.33337 20C3.33337 29.2048 10.7953 36.6667 20 36.6667Z" stroke="#F0F0F0" stroke-width="2" stroke-linecap="round"/>
<path d="M15.6699 22.5C16.1088 23.2602 16.7399 23.8913 17.5001 24.3302C18.2602 24.769 19.1224 25 20.0001 25C20.8777 25 21.7399 24.769 22.5001 24.3302C23.2602 23.8913 23.8914 23.2602 24.3302 22.5" stroke="#F0F0F0" stroke-width="2" stroke-linecap="round"/>
<path d="M15 13.125H13.3334C12.2978 13.125 11.4584 13.9645 11.4584 15C11.4584 16.0355 12.2978 16.875 13.3334 16.875H15C16.0356 16.875 16.875 16.0355 16.875 15C16.875 13.9645 16.0356 13.125 15 13.125Z" fill="#F0F0F0" stroke="#F0F0F0" stroke-width="0.25" stroke-linecap="round"/>
<path d="M26.6667 13.125H25C23.9645 13.125 23.125 13.9645 23.125 15C23.125 16.0355 23.9645 16.875 25 16.875H26.6667C27.7022 16.875 28.5417 16.0355 28.5417 15C28.5417 13.9645 27.7022 13.125 26.6667 13.125Z" fill="#F0F0F0" stroke="#F0F0F0" stroke-width="0.25" stroke-linecap="round"/>
</svg>
