<svg width="32" height="32" viewBox="0 0 32 32" fill="none" xmlns="http://www.w3.org/2000/svg">
<path d="M15.7929 20.9339C20.3592 20.9194 24.7975 22.5385 28.3949 25.5313C28.612 25.702 28.7892 25.9235 28.913 26.1788C29.0368 26.434 29.1038 26.7162 29.1088 27.0034V28.9906H2.89119V26.6763C2.89598 26.385 2.96455 26.099 3.09143 25.8408C3.21832 25.5826 3.40004 25.3595 3.62215 25.1892C7.1415 22.4105 11.4106 20.9169 15.7929 20.9309M15.7929 18.9185C11.0064 18.9084 6.34431 20.5399 2.49781 23.5712C2.03713 23.9279 1.66159 24.3947 1.40143 24.934C1.14128 25.4733 1.00378 26.0701 1 26.6763V29.3669C1 29.8001 1.1617 30.2154 1.44951 30.5217C1.73732 30.8279 2.12766 31 2.53469 31H29.4653C29.8723 31 30.2627 30.8279 30.5505 30.5217C30.8383 30.2154 31 29.8001 31 29.3669V27.0003C30.9947 26.4065 30.8618 25.8218 30.6113 25.2911C30.3609 24.7603 29.9996 24.2976 29.5551 23.9385C25.6218 20.6795 20.7779 18.9127 15.7929 18.9185Z" fill="#FFCCAA"/>
<path d="M15.7929 20.9339C20.3592 20.9194 24.7975 22.5385 28.3949 25.5313C28.612 25.702 28.7892 25.9235 28.913 26.1788C29.0368 26.434 29.1038 26.7162 29.1088 27.0034V28.9906H2.89119V26.6763C2.89598 26.385 2.96455 26.099 3.09143 25.8408C3.21832 25.5826 3.40004 25.3595 3.62215 25.1892C7.1415 22.4105 11.4106 20.9169 15.7929 20.9309M15.7929 18.9185C11.0064 18.9084 6.34431 20.5399 2.49781 23.5712C2.03713 23.9279 1.66159 24.3947 1.40143 24.934C1.14128 25.4733 1.00378 26.0701 1 26.6763V29.3669C1 29.8001 1.1617 30.2154 1.44951 30.5217C1.73732 30.8279 2.12766 31 2.53469 31H29.4653C29.8723 31 30.2627 30.8279 30.5505 30.5217C30.8383 30.2154 31 29.8001 31 29.3669V27.0003C30.9947 26.4065 30.8618 25.8218 30.6113 25.2911C30.3609 24.7603 29.9996 24.2976 29.5551 23.9385C25.6218 20.6795 20.7779 18.9127 15.7929 18.9185Z" stroke="#FFCCAA"/>
<path d="M15.8023 3.01241C17.2716 3.01241 18.7078 3.47601 19.9295 4.3446C21.1511 5.21318 22.1032 6.44774 22.6655 7.89214C23.2277 9.33654 23.3748 10.9259 23.0882 12.4593C22.8016 13.9927 22.0941 15.4012 21.0552 16.5066C20.0163 17.6121 18.6926 18.365 17.2516 18.67C15.8106 18.975 14.317 18.8185 12.9596 18.2202C11.6022 17.6219 10.442 16.6087 9.6257 15.3088C8.80943 14.0089 8.37375 12.4806 8.37375 10.9172C8.37601 8.82142 9.15937 6.8122 10.552 5.33029C11.9447 3.84838 13.8328 3.01481 15.8023 3.01241ZM15.8023 1C13.9591 1 12.1572 1.58162 10.6246 2.67133C9.09193 3.76104 7.89738 5.3099 7.19199 7.12203C6.4866 8.93415 6.30201 10.9282 6.66162 12.8519C7.02123 14.7756 7.90886 16.5427 9.21226 17.9296C10.5157 19.3166 12.1763 20.2611 13.9842 20.6437C15.792 21.0264 17.6659 20.83 19.3689 20.0794C21.0718 19.3288 22.5274 18.0577 23.5515 16.4268C24.5756 14.796 25.1222 12.8786 25.1222 10.9172C25.1222 8.28696 24.1402 5.76449 22.3924 3.90466C20.6446 2.04483 18.2741 1 15.8023 1Z" fill="#FFCCAA" stroke="#FFCCAA"/>
</svg>
