<svg width="50" height="50" viewBox="0 0 50 50" fill="none" xmlns="http://www.w3.org/2000/svg">
<path fill-rule="evenodd" clip-rule="evenodd" d="M29.4573 25.0004C29.4573 27.3017 27.6383 29.1671 25.3948 29.1671C23.151 29.1671 21.3323 27.3017 21.3323 25.0004C21.3323 22.6994 23.151 20.8338 25.3948 20.8338C27.6383 20.8338 29.4573 22.6994 29.4573 25.0004Z" stroke="#F0F0F0" stroke-width="1.5" stroke-linecap="round" stroke-linejoin="round"/>
<path fill-rule="evenodd" clip-rule="evenodd" d="M15.7788 37.709L10.6702 26.6944C9.98494 25.6056 9.98494 24.2061 10.6702 23.1173L15.7463 12.2756C16.5233 11.0926 17.8312 10.3933 19.2218 10.4173H25.3948H31.5677C32.9581 10.3933 34.266 11.0926 35.0431 12.2756L40.1092 23.109C40.7944 24.1977 40.7944 25.5973 40.1092 26.6861L35.0106 37.709C34.2342 38.9042 32.9171 39.6111 31.5169 39.584H19.2705C17.871 39.6104 16.5549 38.9036 15.7788 37.709Z" stroke="#F0F0F0" stroke-width="1.5" stroke-linecap="round" stroke-linejoin="round"/>
</svg>
